<svg width="243" height="244" viewBox="0 0 243 244" fill="none" xmlns="http://www.w3.org/2000/svg">
<g clip-path="url(#clip0_1_4)">
<path d="M135.5 0L192 84L227.5 62L243 84L135.5 156.5L181.5 227.5L159.5 243.5L97 148L167.5 99.5L112.5 15.5L135.5 0Z" fill="white"/>
<path d="M107.5 244L51 160L15.5 182L0 160L107.5 87.5L61.5 16.5L83.5 0.5L146 96L75.5 144.5L130.5 228.5L107.5 244Z" fill="white"/>
<path d="M86 83.5L15.5 130.5L0 108L71.5 62L86 83.5Z" fill="white"/>
<path d="M243 135.5L172.5 182.5L157 160L228.5 114L243 135.5Z" fill="white"/>
<path d="M61 48.5L46.5 27L26 40L40.5 62.5L61 48.5Z" fill="#39D353"/>
<path d="M218 203.5L203.5 182L183 195L197.5 217.5L218 203.5Z" fill="#39D353"/>
<path d="M61 203.5L46.5 182L26 195L40.5 217.5L61 203.5Z" fill="#39D353"/>
<path d="M218 48.5L203.5 27L183 40L197.5 62.5L218 48.5Z" fill="#39D353"/>
</g>
<defs>
<clipPath id="clip0_1_4">
<rect width="243" height="244" fill="white"/>
</clipPath>
</defs>
</svg>
